<svg xmlns="http://www.w3.org/2000/svg" width="22.213" height="23.048" viewBox="0 0 22.213 23.048">
  <g id="calendar_1_" data-name="calendar (1)" transform="translate(0.25 0.25)">
    <g id="Group_127" data-name="Group 127" transform="translate(0 0)">
      <path id="Path_72" data-name="Path 72" d="M8.978,22.548H24.711a2.992,2.992,0,0,0,2.99-2.99V4.66a2.992,2.992,0,0,0-2.99-2.99H23.525V.835a.835.835,0,0,0-1.67,0V1.67H11.834V.835a.835.835,0,0,0-1.67,0V1.67H8.978a2.992,2.992,0,0,0-2.99,2.99v14.9a2.992,2.992,0,0,0,2.99,2.99ZM7.658,4.66A1.322,1.322,0,0,1,8.978,3.34h1.186v.835a.835.835,0,1,0,1.67,0V3.34H21.855v.835a.835.835,0,0,0,1.67,0V3.34h1.186A1.322,1.322,0,0,1,26.03,4.66V7.1H7.658Zm0,4.109H26.031v10.79a1.322,1.322,0,0,1-1.319,1.319H8.978a1.322,1.322,0,0,1-1.319-1.319Z" transform="translate(-5.988 0)" fill="#fff" stroke="#414141" stroke-width="0.5"/>
    </g>
  </g>
</svg>
