<svg xmlns="http://www.w3.org/2000/svg" width="18.808" height="17.946" viewBox="0 0 18.808 17.946">
  <g id="house" transform="translate(0 -11.141)">
    <path id="Path_36" data-name="Path 36" d="M18.634,19.238,9.784,11.323a.248.248,0,0,0-.05-.039.523.523,0,0,0-.708-.012L.175,19.188a.523.523,0,0,0,.7.781l1.594-1.427v9.23A1.317,1.317,0,0,0,3.78,29.087H6.573a1.235,1.235,0,0,0,1.234-1.234V23.161a.19.19,0,0,1,.19-.19h2.82a.19.19,0,0,1,.19.19v4.692a1.235,1.235,0,0,0,1.234,1.234h2.793a1.5,1.5,0,0,0,1.315-1.648V18.592l1.594,1.427a.526.526,0,0,0,.739-.043A.533.533,0,0,0,18.634,19.238ZM15.3,21.818v5.613c0,.375-.186.6-.271.6H12.236a.19.19,0,0,1-.19-.19V23.161a1.235,1.235,0,0,0-1.234-1.234H7.993a1.235,1.235,0,0,0-1.234,1.234v4.692a.19.19,0,0,1-.19.19H3.776a.272.272,0,0,1-.271-.271V17.606L9.378,12.36l5.922,5.3v4.162Z" transform="translate(0)" fill="#414141"/>
  </g>
</svg>
