<svg xmlns="http://www.w3.org/2000/svg" width="13.982" height="16.312" viewBox="0 0 13.982 16.312">
  <path id="Icon_metro-language" data-name="Icon metro-language" d="M10.723,12.016q-.009.027-.114,0t-.287-.1l-.182-.082a5.454,5.454,0,0,1-.792-.446q-.064-.046-.373-.287t-.346-.259a15.508,15.508,0,0,1-1.22,1.648,6.767,6.767,0,0,1-.956,1,.721.721,0,0,1-.178.036.351.351,0,0,1-.168,0q.055-.036.746-.837.191-.218.778-1.047a12.727,12.727,0,0,0,.715-1.074q.155-.273.464-.9a7.1,7.1,0,0,0,.328-.705,7.481,7.481,0,0,0-1,.3q-.073.018-.25.068l-.314.086a1.56,1.56,0,0,0-.155.046.155.155,0,0,0-.018.1.2.2,0,0,1-.009.086q-.046.091-.282.137a.734.734,0,0,1-.428,0,.384.384,0,0,1-.255-.191.463.463,0,0,1-.046-.209A1.759,1.759,0,0,1,6.6,9.331a2.718,2.718,0,0,0,.269-.055q.528-.146.956-.291.91-.319.929-.319a2.02,2.02,0,0,0,.391-.178,4.117,4.117,0,0,1,.4-.2q.082-.027.2-.073t.132-.05a.122.122,0,0,1,.055,0,1.036,1.036,0,0,1-.009.3,1.938,1.938,0,0,1-.114.246q-.114.228-.241.487t-.155.3a13.652,13.652,0,0,1-.7,1.192l.583.255q.109.055.678.291l.614.255q.036.009.1.232a.69.69,0,0,1,.041.278ZM8.857,7.592a.369.369,0,0,1-.036.255.825.825,0,0,1-.455.346,1.461,1.461,0,0,1-.546.109.753.753,0,0,1-.446-.237.685.685,0,0,1-.164-.373l.009-.027a.39.39,0,0,0,.178.046.792.792,0,0,0,.241,0q.091-.018.528-.146a2.6,2.6,0,0,1,.5-.127.18.18,0,0,1,.191.155Zm6.354,1.174.573,2.066-1.265-.382ZM5.125,16.049l6.317-2.112V4.543L5.125,6.664v9.385Zm11.3-2.886.929.282L15.7,7.465l-.91-.282-1.966,4.879.929.282.41-1,1.921.592ZM11.843,4.406l5.216,1.675V2.622ZM14.674,16.45l1.438.118-.492,1.456-.364-.6a6.748,6.748,0,0,1-2.512.983,4.363,4.363,0,0,1-.828.109h-.765a6.152,6.152,0,0,1-1.816-.355,6.045,6.045,0,0,1-1.67-.774.19.19,0,0,1-.073-.146.176.176,0,0,1,.045-.123.152.152,0,0,1,.118-.05.512.512,0,0,1,.164.068l.278.15.187.1a8.065,8.065,0,0,0,1.452.56,5.3,5.3,0,0,0,1.434.223,7.768,7.768,0,0,0,1.52-.132,7.5,7.5,0,0,0,1.429-.46q.137-.064.278-.141l.309-.173q.168-.1.259-.15Zm4.078-9.822V16.45L11.706,14.21q-.127.055-3.414,1.161t-3.35,1.106a.165.165,0,0,1-.164-.118.07.07,0,0,0-.009-.027V6.518a.406.406,0,0,1,.036-.091.41.41,0,0,1,.182-.1q.965-.319,1.356-.455v-3.5l5.079,1.8q.018,0,1.461-.5t2.877-.988Q17.2,2.2,17.232,2.2q.182,0,.182.191V6.2Z" transform="translate(-4.77 -2.203)" fill="#fff"/>
</svg>
