<svg id="logout" xmlns="http://www.w3.org/2000/svg" width="20.345" height="21.949" viewBox="0 0 20.345 21.949">
  <g id="Group_26" data-name="Group 26">
    <path id="Path_40" data-name="Path 40" d="M27.02,20.691H21.295a2.822,2.822,0,0,1-2.818-2.818V4.076a2.822,2.822,0,0,1,2.818-2.818h5.818a.629.629,0,0,0,0-1.258H21.295a4.08,4.08,0,0,0-4.076,4.076v13.8a4.08,4.08,0,0,0,4.076,4.076H27.02a.629.629,0,0,0,0-1.258Z" transform="translate(-17.219)" fill="#fff"/>
    <path id="Path_41" data-name="Path 41" d="M135.867,140.507l-4-4a.629.629,0,0,0-.89.89l2.925,2.925H121.148a.629.629,0,0,0,0,1.258h12.759l-2.925,2.925a.631.631,0,0,0,.443,1.076.614.614,0,0,0,.443-.186l4-4A.628.628,0,0,0,135.867,140.507Z" transform="translate(-115.707 -129.975)" fill="#fff"/>
  </g>
</svg>
