<svg xmlns="http://www.w3.org/2000/svg" width="21.839" height="21.949" viewBox="0 0 21.839 21.949">
  <g id="Group_94" data-name="Group 94" transform="translate(0 0)">
    <path id="notification" d="M70.443,17.467a3.41,3.41,0,0,1-1.036-1.411A16.329,16.329,0,0,1,68.327,9.6c0-.008,0-.016,0-.025A6.228,6.228,0,0,0,64.66,3.931V2.445A2.446,2.446,0,0,0,62.219,0h-.2a2.446,2.446,0,0,0-2.441,2.445V3.931A6.228,6.228,0,0,0,55.909,9.6a16.329,16.329,0,0,1-1.08,6.452,3.41,3.41,0,0,1-1.036,1.411.625.625,0,0,0-.343.711.654.654,0,0,0,.645.5h4.713a3.311,3.311,0,0,0,6.621,0h4.713a.654.654,0,0,0,.645-.5A.625.625,0,0,0,70.443,17.467ZM60.862,2.445a1.157,1.157,0,0,1,1.155-1.157h.2a1.157,1.157,0,0,1,1.155,1.157V3.513a6.228,6.228,0,0,0-2.512,0V2.445Zm1.256,18.216a2.029,2.029,0,0,1-2.024-1.98h4.049A2.029,2.029,0,0,1,62.118,20.661Zm2.589-3.268H55.56A6.741,6.741,0,0,0,55.9,16.8a16.281,16.281,0,0,0,1.3-7.2,4.922,4.922,0,1,1,9.845,0c0,.008,0,.016,0,.024a16.248,16.248,0,0,0,1.3,7.171,6.748,6.748,0,0,0,.337.592Z" transform="translate(-53.434 0)" fill="#fff"/>
    <circle id="Ellipse_55" data-name="Ellipse 55" cx="5" cy="5" r="5" transform="translate(11.839 0.404)" fill="#0067b8"/>
  </g>
</svg>
