<svg xmlns="http://www.w3.org/2000/svg" width="19.437" height="19.438" viewBox="0 0 19.437 19.438">
  <g id="profit" transform="translate(0 0)">
    <path id="Path_73" data-name="Path 73" d="M206.88,346.759a.38.38,0,1,0-.38-.38A.38.38,0,0,0,206.88,346.759Zm0,0" transform="translate(-198.679 -332.864)" fill="#fff"/>
    <path id="Path_74" data-name="Path 74" d="M.61,14.771l4.556,4.556a.38.38,0,0,0,.537,0l2.506-2.506a.38.38,0,0,0,0-.537L8.1,16.173H13.57a1.894,1.894,0,0,0,1.293-.509l4.606-4.317a1.466,1.466,0,0,0-1.774-2.317L16.672,9.7a6.384,6.384,0,0,0-2.963-5.24,1.141,1.141,0,0,0-.5-1.832l-.056-.017L14.127.856A.38.38,0,0,0,13.9.307a7.784,7.784,0,0,0-4.329,0,.379.379,0,0,0-.226.549l.977,1.756-.057.018a1.139,1.139,0,0,0-.5,1.832A6.384,6.384,0,0,0,6.8,9.719c0,.056,0,.11,0,.165a4.665,4.665,0,0,0-1.844.989L3.807,11.883l-.154-.154a.38.38,0,0,0-.537,0L.61,14.234a.38.38,0,0,0,0,.537ZM10.25.918a7.041,7.041,0,0,1,2.974,0l-.846,1.52a4.629,4.629,0,0,0-1.282,0ZM10.5,3.351a3.929,3.929,0,0,1,2.465,0,.38.38,0,0,1-.095.74,3.714,3.714,0,0,0-2.274,0h0a.379.379,0,0,1-.1-.739Zm.21,1.5a2.962,2.962,0,0,1,2-.016,5.392,5.392,0,0,1,3.2,4.882,3.654,3.654,0,0,1-.033.5l-1.825,1.2a1.51,1.51,0,0,0-1.179-.561h-.759v-.445a1.139,1.139,0,0,0-.38-2.213.38.38,0,1,1,0-.759.61.61,0,0,1,.411.2.38.38,0,1,0,.528-.546,1.465,1.465,0,0,0-.559-.35V6.3a.38.38,0,1,0-.759,0v.445a1.139,1.139,0,0,0,.38,2.213.38.38,0,0,1,0,.759.687.687,0,0,1-.493-.287.38.38,0,0,0-.581.489,1.574,1.574,0,0,0,.694.494v.443h-.126c-.187,0-.27-.122-.4-.207a4.657,4.657,0,0,0-3.268-.908c0-.008,0-.016,0-.024a5.427,5.427,0,0,1,3.153-4.866ZM5.461,11.444a3.9,3.9,0,0,1,4.912-.186,1.346,1.346,0,0,0,.857.359h1.645a.759.759,0,1,1,0,1.519H10.218a.38.38,0,1,0,0,.759h2.658a1.517,1.517,0,0,0,1.5-1.776L18.1,9.673a.706.706,0,0,1,.851,1.12l-4.606,4.316a1.136,1.136,0,0,1-.775.3H7.338L4.345,12.421Zm-2.076,1.09L7.4,16.553,5.435,18.522,1.416,14.5Zm0,0" transform="translate(-0.499 0)" fill="#fff"/>
  </g>
</svg>
