<svg xmlns="http://www.w3.org/2000/svg" width="35" height="35" viewBox="0 0 35 35">
  <g id="Group_200" data-name="Group 200" transform="translate(-644 -105)">
    <rect id="Rectangle_101" data-name="Rectangle 101" width="35" height="35" rx="5" transform="translate(644 105)" fill="#fabb05" opacity="0.05"/>
    <g id="to-do-list" transform="translate(594.038 113.737)">
      <path id="Path_76" data-name="Path 76" d="M73.61,1.556A1.84,1.84,0,0,0,72.3,1.012h-.837V.843A.844.844,0,0,0,70.619,0h-6.07a.844.844,0,0,0-.843.843v.169h-.84a1.856,1.856,0,0,0-1.853,1.853L61,15.409a1.854,1.854,0,0,0,1.853,1.857h9.432a1.856,1.856,0,0,0,1.853-1.853l.014-12.545A1.843,1.843,0,0,0,73.61,1.556Zm-8.892-.544h5.733V2.023H64.718Zm8.409,14.4a.844.844,0,0,1-.842.842H62.853a.843.843,0,0,1-.842-.844l.014-12.545a.844.844,0,0,1,.842-.842h.84v.169a.844.844,0,0,0,.843.843h6.07a.844.844,0,0,0,.843-.843V2.023H72.3a.843.843,0,0,1,.842.844Z" fill="#fabb05"/>
      <path id="Path_77" data-name="Path 77" d="M246.6,171.012H250.2a.506.506,0,1,0,0-1.012H246.6a.506.506,0,0,0,0,1.012Z" transform="translate(-178.857 -164.267)" fill="#fabb05"/>
      <path id="Path_78" data-name="Path 78" d="M246.6,271.012H250.2a.506.506,0,1,0,0-1.012H246.6a.506.506,0,0,0,0,1.012Z" transform="translate(-178.857 -260.895)" fill="#fabb05"/>
      <path id="Path_79" data-name="Path 79" d="M250.213,370H246.6a.506.506,0,1,0,0,1.012h3.608a.506.506,0,1,0,0-1.012Z" transform="translate(-178.857 -357.523)" fill="#fabb05"/>
      <path id="Path_80" data-name="Path 80" d="M131.207,139.912l-1.167,1.167-.275-.275a.506.506,0,1,0-.715.715l.633.633a.506.506,0,0,0,.715,0l1.524-1.524a.506.506,0,0,0-.715-.715Z" transform="translate(-65.612 -135.05)" fill="#fabb05"/>
      <path id="Path_81" data-name="Path 81" d="M131.207,247.55l-1.167,1.167-.275-.275a.506.506,0,1,0-.715.715l.633.633a.506.506,0,0,0,.715,0l1.524-1.524a.506.506,0,0,0-.715-.715Z" transform="translate(-65.612 -239.058)" fill="#fabb05"/>
      <path id="Path_82" data-name="Path 82" d="M131.207,347.549l-1.167,1.167-.275-.275a.506.506,0,0,0-.715.715l.633.633a.506.506,0,0,0,.715,0l1.524-1.524a.506.506,0,0,0-.715-.715Z" transform="translate(-65.612 -335.686)" fill="#fabb05"/>
    </g>
  </g>
</svg>
